# xmcd
#
# Track frame offsets: 
#        150
#        13241
#        28383
#        39178
#        51986
#        64720
#        74949
#        88305
#        101916
#        111058
#        122000
#        134861
#        146631
#        159200
#        171282
#        183968
#        193429
#        206871
#        219138
#        232317
#        244564
#        257097
#        266728
#        280232
#
# Disc length: 3890 seconds
#
# Revision: 1
# Processed by: cddbd v1.5.2PL0 Copyright (c) Steve Scherf et al.
# Submitted via: ExactAudioCopy v1.0b2
#
DISCID=850f3018
DTITLE=Sugar Pie Desanto - Go Go Power - The Complete Chess Singles 19
DTITLE=61–1966
DYEAR=1900
DGENRE=Soul/Funk/RnB
TTITLE0=Soulfull Dress
TTITLE1=I Don't Wanna Fuss
TTITLE2=In The Basement (part 1)
TTITLE3=Witch For A Night
TTITLE4=Slip-In Mules (No High Heel Sneakers)
TTITLE5=Mama Didn't Raise No Fools
TTITLE6=Go Go Power
TTITLE7=Do I Make Myself Clear
TTITLE8=Mr. and Mrs.
TTITLE9=Good Timin'
TTITLE10=Here You Come Running
TTITLE11=Ask Me
TTITLE12=Can't Let You Go
TTITLE13=Crazy Lovin
TTITLE14=I Love You So Much
TTITLE15=It Won't Be Long
TTITLE16=Junp In My Chest
TTITLE17=Love Me Tonight
TTITLE18=There's Gonna Be Trouble
TTITLE19=Use What You Got
TTITLE20=Never Love A Stranger
TTITLE21=Open Your Heart
TTITLE22=Somewhere Down The Line
TTITLE23=In The Basement (part 2)
EXTD=
EXTT0=
EXTT1=
EXTT2=
EXTT3=
EXTT4=
EXTT5=
EXTT6=
EXTT7=
EXTT8=
EXTT9=
EXTT10=
EXTT11=
EXTT12=
EXTT13=
EXTT14=
EXTT15=
EXTT16=
EXTT17=
EXTT18=
EXTT19=
EXTT20=
EXTT21=
EXTT22=
EXTT23=
PLAYORDER=
